<?xml version="1.0" standalone="no"?>
<!DOCTYPE svg PUBLIC "-//W3C//DTD SVG 20010904//EN"
 "http://www.w3.org/TR/2001/REC-SVG-20010904/DTD/svg10.dtd">
<svg version="1.0" xmlns="http://www.w3.org/2000/svg"
 width="370.000000pt" height="270.000000pt" viewBox="0 0 370.000000 270.000000"
 preserveAspectRatio="xMidYMid meet">

<g transform="translate(0.000000,270.000000) scale(0.100000,-0.100000)"
fill="#000000" stroke="none">
<path d="M745 2534 c-189 -34 -253 -64 -356 -171 -94 -96 -117 -140 -131 -249
-21 -163 17 -282 118 -372 105 -94 233 -142 378 -142 56 0 65 -3 91 -30 38
-39 102 -68 169 -76 68 -8 74 1 52 77 -22 74 -21 76 28 83 120 18 255 131 292
242 15 46 19 89 19 199 l0 140 -34 63 c-63 117 -193 204 -353 236 -93 19 -166
19 -273 0z m267 -49 c155 -33 273 -115 322 -225 25 -55 28 -73 27 -164 -2
-174 -39 -265 -138 -337 -50 -35 -142 -69 -189 -69 -18 0 -36 -4 -39 -10 -3
-5 1 -38 10 -71 8 -34 13 -64 11 -66 -12 -12 -89 22 -127 55 -41 37 -49 39
-127 46 -158 13 -225 36 -327 111 -64 47 -98 95 -119 164 -26 90 -18 228 20
307 24 50 144 169 200 197 46 22 190 62 259 70 71 9 149 6 217 -8z"/>
<path d="M901 2339 c-13 -5 -45 -25 -72 -45 -26 -19 -50 -30 -53 -25 -3 5 -27
23 -53 40 -62 42 -106 41 -169 -1 -87 -58 -117 -161 -74 -255 32 -71 162 -186
291 -257 62 -34 66 -35 94 -20 135 70 252 174 297 264 53 105 9 249 -89 291
-48 20 -132 24 -172 8z m-241 -53 c0 -3 -4 -8 -10 -11 -5 -3 -10 -1 -10 4 0 6
5 11 10 11 6 0 10 -2 10 -4z m230 -20 c0 -2 -8 -10 -17 -17 -16 -13 -17 -12
-4 4 13 16 21 21 21 13z m-130 -56 c0 -5 -7 -10 -16 -10 -8 0 -12 5 -9 10 3 6
10 10 16 10 5 0 9 -4 9 -10z m-239 -37 c-12 -20 -14 -14 -5 12 4 9 9 14 11 11
3 -2 0 -13 -6 -23z m606 -45 c-3 -7 -5 -2 -5 12 0 14 2 19 5 13 2 -7 2 -19 0
-25z m-567 -78 c0 -5 -2 -10 -4 -10 -3 0 -8 5 -11 10 -3 6 -1 10 4 10 6 0 11
-4 11 -10z m90 -90 c0 -5 -5 -10 -11 -10 -5 0 -7 5 -4 10 3 6 8 10 11 10 2 0
4 -4 4 -10z m351 -23 c-10 -9 -11 -8 -5 6 3 10 9 15 12 12 3 -3 0 -11 -7 -18z
m-237 -64 c4 -11 1 -11 -14 -3 -24 13 -25 17 -5 17 8 0 16 -6 19 -14z m86 -32
c0 -5 -7 -12 -16 -15 -14 -5 -15 -4 -4 9 14 17 20 19 20 6z"/>
<path d="M1831 2053 c-75 -45 -199 -171 -268 -274 -28 -41 -96 -120 -151 -175
-154 -154 -211 -259 -232 -431 -36 -287 89 -547 360 -747 54 -40 71 -60 102
-121 40 -77 67 -105 106 -105 37 0 58 17 76 60 18 46 10 44 141 25 60 -9 180
-14 303 -15 176 0 202 -2 202 -15 0 -20 29 -78 44 -87 6 -4 28 -8 49 -8 40 0
57 13 117 88 21 26 34 32 83 37 54 6 57 5 57 -15 0 -28 61 -90 89 -90 51 0 86
37 115 123 3 9 17 22 31 29 22 10 29 8 53 -14 59 -55 105 -60 135 -14 9 13 25
68 36 123 11 54 30 125 41 158 47 136 93 376 115 592 25 256 3 323 -107 323
-25 0 -69 12 -107 29 l-64 29 -24 119 c-41 204 -91 273 -200 273 -92 0 -260
-67 -342 -135 -26 -23 -30 -23 -68 -10 -41 14 -200 48 -285 60 -44 7 -49 11
-78 61 -93 165 -197 205 -329 127z m207 -47 c21 -19 50 -57 65 -85 l27 -49
-77 -7 c-109 -9 -274 -42 -357 -71 -38 -13 -71 -23 -73 -21 -6 7 107 135 158
179 82 70 118 88 171 88 41 0 54 -5 86 -34z m956 -127 c14 -11 33 -34 41 -49
17 -33 61 -204 69 -271 4 -25 13 -69 21 -97 12 -40 20 -52 36 -52 25 0 33 19
20 53 -6 15 -8 27 -5 27 2 0 27 -12 55 -26 34 -17 64 -24 89 -23 77 6 87 -36
65 -261 -21 -205 -68 -450 -119 -608 -13 -42 -33 -113 -43 -157 -22 -97 -39
-106 -90 -50 -36 39 -43 40 -113 7 -29 -14 -38 -26 -53 -74 -12 -39 -25 -59
-38 -63 -31 -10 -57 20 -61 69 -3 41 -3 41 -43 40 -114 -3 -174 -30 -213 -96
-8 -14 -26 -31 -39 -37 -20 -9 -25 -7 -39 15 -14 21 -15 29 -4 48 7 13 10 29
6 34 -4 7 -70 8 -184 5 -147 -5 -206 -2 -351 17 -257 32 -355 69 -487 181 -97
82 -146 139 -198 228 -140 241 -123 527 45 737 145 182 280 263 524 312 164
34 290 38 426 13 115 -21 216 -47 276 -72 40 -16 65 -1 47 29 -13 21 5 37 96
83 124 63 216 76 264 38z m-1206 -1577 c5 -17 -34 -56 -51 -49 -13 5 -57 75
-57 90 0 8 105 -32 108 -41z"/>
<path d="M1447 1409 c-59 -39 -88 -98 -95 -190 -4 -54 -1 -74 13 -95 16 -25
19 -26 101 -22 108 4 128 21 145 123 14 86 1 145 -41 187 -36 36 -65 35 -123
-3z"/>
<path d="M2590 1334 c-56 -35 -97 -144 -87 -232 5 -50 33 -82 71 -82 11 -1 32
-7 46 -15 57 -33 129 -2 148 63 16 53 15 165 -2 206 -28 67 -116 97 -176 60z"/>
<path d="M1947 1215 c-34 -30 -63 -32 -79 -5 -13 21 -58 28 -58 9 0 -6 6 -23
14 -37 8 -15 21 -64 29 -109 18 -96 47 -142 111 -172 53 -26 112 -27 152 -2
42 26 84 114 84 177 0 38 5 54 26 75 41 43 10 67 -42 33 -35 -23 -97 -13 -149
25 -24 17 -47 31 -52 31 -4 0 -21 -12 -36 -25z m-27 -84 c0 -6 -4 -13 -10 -16
-5 -3 -10 1 -10 9 0 9 5 16 10 16 6 0 10 -4 10 -9z m213 -28 c-7 -2 -19 -2
-25 0 -7 3 -2 5 12 5 14 0 19 -2 13 -5z m-138 -151 c-3 -3 -11 0 -18 7 -9 10
-8 11 6 5 10 -3 15 -9 12 -12z"/>
<path d="M1442 998 c-1 -66 -1 -70 -12 -63 -5 3 -10 1 -10 -4 0 -21 20 -10 35
19 9 17 13 30 9 30 -4 0 -1 7 6 15 10 11 9 18 -3 30 -22 22 -25 20 -25 -27z"/>
<path d="M1578 1029 c-10 -5 -18 -20 -18 -31 0 -12 -5 -37 -12 -55 -9 -26 -9
-36 0 -45 20 -20 31 3 33 62 1 30 6 61 12 68 11 14 8 15 -15 1z"/>
<path d="M1315 1022 c-10 -7 -12 -14 -20 -55 -2 -9 -7 -22 -10 -27 -3 -6 3
-10 14 -10 15 0 21 6 21 21 0 11 4 28 9 38 11 20 0 43 -14 33z"/>
<path d="M2465 951 c3 -5 -2 -16 -10 -24 -8 -9 -15 -33 -15 -53 0 -39 16 -38
23 1 2 11 8 29 14 40 11 22 7 45 -8 45 -6 0 -8 -4 -4 -9z"/>
<path d="M2572 935 c-15 -32 -16 -115 -2 -115 6 0 10 8 11 18 0 9 2 24 4 32
12 50 14 64 7 77 -6 11 -11 8 -20 -12z"/>
<path d="M2721 890 c1 -27 6 -50 10 -50 9 0 13 30 10 59 -2 7 2 10 9 6 7 -4 7
1 -2 14 -20 33 -28 25 -27 -29z"/>
</g>
</svg>
