<svg xmlns="http://www.w3.org/2000/svg" id="matcha" enable-background="new 0 0 256 256" viewBox="0 0 256 256">
  <path fill="#6d5c49" d="M219,62.9V149c0,38.7-31.3,70-70,70h-21h-21c-38.7,0-70-31.3-70-70V62.9c0,14,40.7,25.3,91,25.3
			S219,76.9,219,62.9z"></path>
  <ellipse cx="128" cy="62.9" fill="#6d5c49" rx="91" ry="25.3"></ellipse>
  <path fill="#333" d="M128 124.3c-1.7 0-3.1-1.4-3.1-3.1s1.4-3.1 3.1-3.1c50.3 0 87.9-11.7 87.9-22.2 0-1.7 1.4-3.1 3.1-3.1s3.1 1.4 3.1 3.1C222.1 114.3 173.6 124.3 128 124.3zM128 184.8c-1.7 0-3.1-1.4-3.1-3.1s1.4-3.1 3.1-3.1c50.3 0 87.9-11.7 87.9-22.2 0-1.7 1.4-3.1 3.1-3.1s3.1 1.4 3.1 3.1C222.1 174.9 173.6 184.8 128 184.8zM128 154.6c-45.6 0-94.1-9.9-94.1-28.3 0-1.7 1.4-3.1 3.1-3.1s3.1 1.4 3.1 3.1c0 10.5 37.6 22.2 87.9 22.2 1.7 0 3.1 1.4 3.1 3.1S129.7 154.6 128 154.6z"></path>
  <ellipse cx="128" cy="62.9" fill="#add65c" rx="62.5" ry="10"></ellipse>
  <g>
    <path fill="#333" d="M128,94.6c-24.9,0-48.4-2.7-66.2-7.7C40.7,81,30,72.8,30,62.3c0-10.5,10.7-18.8,31.8-24.6
				C79.6,32.7,103.1,30,128,30s48.4,2.7,66.2,7.7c21.1,5.9,31.8,14.1,31.8,24.6c0,10.5-10.7,18.8-31.8,24.6
				C176.4,91.8,152.9,94.6,128,94.6z M128,44c-23.7,0-45.9,2.5-62.5,7.1C47.7,56.1,44,61.4,44,62.3s3.7,6.2,21.5,11.1
				c16.6,4.6,38.8,7.1,62.5,7.1s45.9-2.5,62.5-7.1c17.8-4.9,21.5-10.3,21.5-11.1s-3.7-6.2-21.5-11.1C173.9,46.5,151.7,44,128,44z"></path>
    <path fill="#333" d="M128,76c-16.9,0-32.7-1.1-44.7-3c-18.4-2.9-20.9-6.8-20.9-10.1s2.5-7.2,20.9-10.1c12-1.9,27.8-3,44.7-3
				s32.7,1.1,44.7,3c18.4,2.9,20.9,6.8,20.9,10.1s-2.5,7.2-20.9,10.1C160.7,74.9,144.9,76,128,76z M69.1,62.9
				c4.7,3,26.5,6.9,58.9,6.9s54.2-3.9,58.9-6.9c-4.7-3-26.5-6.9-58.9-6.9S73.8,59.9,69.1,62.9z M187.6,63.5L187.6,63.5L187.6,63.5z"></path>
    <path fill="#333" d="M149,226h-42c-42.5,0-77-34.5-77-77V62.3c0-3.9,3.1-7,7-7s7,3.1,7,7V149c0,34.7,28.3,63,63,63h42
				c34.7,0,63-28.3,63-63V62.3c0-3.9,3.1-7,7-7s7,3.1,7,7V149C226,191.5,191.5,226,149,226z"></path>
    <path fill="#333" d="M128,94.6c-3.9,0-7-3.1-7-7s3.1-7,7-7c23.7,0,45.9-2.5,62.5-7.1c17.8-4.9,21.5-10.3,21.5-11.1
				c0-3.9,3.1-7,7-7s7,3.1,7,7c0,10.5-10.7,18.8-31.8,24.6C176.4,91.8,152.9,94.6,128,94.6z"></path>
  </g>
</svg>
