<?xml version="1.0" standalone="no"?>
<!DOCTYPE svg PUBLIC "-//W3C//DTD SVG 20010904//EN"
 "http://www.w3.org/TR/2001/REC-SVG-20010904/DTD/svg10.dtd">
<svg version="1.0" xmlns="http://www.w3.org/2000/svg"
 width="498.000000pt" height="284.000000pt" viewBox="0 0 498.000000 284.000000"
 preserveAspectRatio="xMidYMid meet">

<g transform="translate(0.000000,284.000000) scale(0.100000,-0.100000)"
fill="#000000" stroke="none">
<path d="M1872 2628 c-62 -30 -158 -128 -223 -228 -83 -127 -96 -149 -133
-223 -19 -37 -38 -73 -43 -80 -5 -7 -22 -41 -38 -77 -16 -36 -45 -83 -65 -105
-136 -152 -245 -328 -300 -485 -41 -117 -65 -421 -40 -505 70 -230 133 -339
282 -484 85 -83 141 -128 195 -156 71 -37 90 -57 123 -127 53 -112 100 -147
172 -127 39 10 78 59 78 97 0 34 31 44 102 33 189 -29 304 -34 593 -22 160 7
324 17 365 22 184 25 211 28 224 23 8 -3 21 -22 29 -43 34 -83 93 -124 149
-102 30 11 80 58 132 124 34 43 41 47 81 47 24 0 56 5 71 11 39 14 72 4 80
-26 8 -33 81 -95 111 -95 45 0 143 79 158 128 9 31 39 28 67 -7 26 -32 77 -61
108 -61 33 0 98 47 125 90 14 22 25 42 25 46 0 3 6 20 14 37 13 30 60 178 92
292 7 28 21 111 30 185 25 208 9 613 -32 784 -31 126 -100 174 -289 201 -140
19 -183 31 -189 53 -3 10 -17 86 -31 168 -43 262 -84 386 -146 438 -59 50
-205 71 -319 46 -52 -12 -257 -111 -314 -152 -21 -15 -43 -28 -48 -28 -5 0
-16 -6 -23 -12 -52 -47 -43 -46 -200 -12 -100 22 -150 27 -297 29 -97 2 -181
6 -187 10 -6 3 -20 23 -30 43 -34 64 -167 199 -235 237 -53 29 -73 35 -122 35
-39 -1 -74 -8 -102 -22z m217 -89 c62 -43 185 -184 178 -203 -3 -8 -34 -19
-79 -26 -40 -7 -104 -21 -143 -32 -38 -11 -83 -23 -100 -28 -95 -27 -291 -112
-347 -151 -64 -46 -63 -15 4 98 111 190 202 306 278 355 39 26 52 29 102 26
46 -3 68 -11 107 -39z m1571 -110 c62 -35 91 -74 109 -145 5 -22 18 -73 29
-114 11 -41 23 -104 27 -140 4 -36 11 -72 15 -80 5 -9 11 -47 15 -86 l7 -71
-31 -13 c-38 -15 -39 -30 -3 -84 68 -102 131 -251 148 -346 4 -25 8 -47 9 -50
9 -38 25 -126 30 -167 7 -58 24 -78 54 -68 39 12 36 44 -20 275 -11 47 -38
140 -64 224 -8 27 -15 64 -15 82 0 18 -4 44 -9 58 -15 37 3 44 105 36 86 -7
109 -14 211 -63 55 -26 76 -102 94 -337 11 -143 7 -536 -5 -585 -3 -11 -11
-49 -19 -85 -21 -92 -48 -183 -58 -194 -5 -6 -9 -18 -9 -28 0 -9 -6 -32 -14
-50 -8 -18 -20 -49 -27 -67 -17 -45 -66 -101 -89 -101 -26 0 -64 34 -97 85
-30 49 -66 67 -87 44 -7 -8 -21 -34 -31 -59 -24 -56 -70 -117 -95 -125 -32
-10 -61 14 -86 71 -13 30 -31 57 -39 61 -9 3 -39 -2 -68 -10 -29 -9 -74 -17
-102 -18 -66 -3 -76 -9 -130 -80 -62 -80 -83 -98 -107 -94 -25 5 -43 29 -58
77 -6 21 -21 50 -34 65 l-24 28 -48 -18 c-71 -25 -291 -46 -596 -58 -228 -8
-291 -8 -424 6 -86 9 -168 21 -181 26 -64 24 -123 -8 -123 -66 0 -37 -25 -75
-49 -75 -27 0 -65 48 -94 120 -26 61 -32 68 -100 109 -225 138 -389 333 -462
552 -24 74 -34 211 -23 328 11 120 51 251 106 351 20 36 41 74 47 85 64 119
225 296 342 375 41 28 77 50 82 50 4 0 30 11 56 26 76 40 273 106 410 138 206
48 613 46 738 -3 16 -6 39 -11 51 -11 53 0 284 -109 426 -201 60 -39 117 -69
127 -67 22 4 29 43 13 63 -7 8 -37 30 -67 47 -31 18 -72 43 -92 56 -58 36
-112 64 -176 94 -33 14 -61 33 -63 41 -2 10 36 38 113 81 64 36 120 66 123 66
4 0 34 14 67 31 56 28 66 30 150 26 52 -2 101 -10 115 -18z"/>
<path d="M1535 1574 c-58 -21 -103 -69 -122 -131 l-17 -53 39 -40 c38 -39 41
-40 107 -40 69 0 88 9 176 81 18 15 14 80 -8 116 -21 36 -90 83 -117 82 -10 0
-36 -7 -58 -15z m75 -62 c-1 -38 -90 -65 -90 -27 0 25 60 59 83 48 4 -2 7 -12
7 -21z m-130 -98 c0 -8 -4 -12 -10 -9 -5 3 -10 10 -10 16 0 5 5 9 10 9 6 0 10
-7 10 -16z m70 -18 c0 -20 -19 -31 -32 -18 -6 6 -7 15 -4 21 10 16 36 13 36
-3z"/>
<path d="M3167 1535 c-41 -28 -52 -57 -50 -128 1 -47 21 -90 52 -114 22 -17
81 -16 124 2 20 8 48 15 61 15 14 0 37 10 52 23 22 19 28 34 31 78 2 33 -1 64
-9 79 -37 69 -186 95 -261 45z m111 -52 c5 -17 -26 -29 -40 -15 -6 6 -7 15 -3
22 9 14 37 9 43 -7z m80 -21 c3 -19 -1 -23 -15 -20 -10 2 -19 14 -21 26 -3 19
1 23 15 20 10 -2 19 -14 21 -26z m-158 -83 c0 -31 -9 -36 -28 -17 -13 13 -16
50 -5 61 12 13 33 -15 33 -44z m90 -9 c0 -13 -7 -20 -20 -20 -19 0 -27 20 -13
33 13 14 33 6 33 -13z m70 -6 c0 -8 -5 -12 -10 -9 -6 4 -8 11 -5 16 9 14 15
11 15 -7z"/>
<path d="M2731 1496 c-7 -8 -14 -27 -17 -43 -11 -59 -69 -88 -162 -81 -51 5
-59 9 -96 50 -43 47 -70 53 -81 18 -12 -36 -123 -83 -151 -63 -15 11 -37 54
-30 60 9 9 -14 43 -29 43 -45 0 -61 -87 -25 -133 41 -52 137 -59 220 -17 46
23 66 25 73 6 7 -17 90 -46 135 -46 50 0 142 29 168 54 12 11 32 40 44 63 19
37 20 45 8 70 -15 32 -40 40 -57 19z"/>
</g>
</svg>
